<svg width="857" height="1025" viewBox="0 0 857 1025" fill="none" xmlns="http://www.w3.org/2000/svg">
<g clip-path="url(#clip0_76_146)">
<g opacity="0.16">
<rect x="722.952" y="645.142" width="383.82" height="383.82" rx="1.5" transform="rotate(-105 722.952 645.142)" stroke="#223843"/>
<rect x="825.691" y="1024.38" width="383.82" height="383.82" rx="1.5" transform="rotate(-105 825.691 1024.38)" stroke="#223843"/>
<rect x="99.9522" y="607.694" width="383.82" height="383.82" rx="1.5" transform="rotate(-105 99.9522 607.694)" stroke="#223843"/>
<rect x="480.153" y="509.727" width="191.41" height="191.41" rx="1.5" transform="rotate(-105 480.153 509.727)" stroke="#223843"/>
<rect x="622.109" y="268.283" width="191.41" height="191.41" rx="1.5" transform="rotate(-105 622.109 268.283)" stroke="#223843"/>
<rect x="428.721" y="318.634" width="191.41" height="191.41" rx="1.5" transform="rotate(-105 428.721 318.634)" stroke="#223843"/>
<rect x="379.079" y="120.481" width="383.82" height="383.82" rx="1.5" transform="rotate(-105 379.079 120.481)" stroke="#223843"/>
</g>
</g>
<defs>
<clipPath id="clip0_76_146">
<rect width="857" height="1025" fill="white"/>
</clipPath>
</defs>
</svg>
