<?xml version="1.0" encoding="UTF-8" standalone="no"?><!DOCTYPE svg PUBLIC "-//W3C//DTD SVG 1.1//EN" "http://www.w3.org/Graphics/SVG/1.1/DTD/svg11.dtd"><svg width="100%" height="100%" viewBox="0 0 512 512" version="1.1" xmlns="http://www.w3.org/2000/svg" xmlns:xlink="http://www.w3.org/1999/xlink" xml:space="preserve" xmlns:serif="http://www.serif.com/" style="fill-rule:evenodd;clip-rule:evenodd;stroke-linecap:round;stroke-linejoin:round;stroke-miterlimit:1.5;"><g id="Logo"><circle cx="256" cy="256" r="236" style="fill:none;stroke:#f4f4f4;stroke-width:20.83px;"/><g><path d="M279.832,301.584l3.764,-18.819c23.838,0 45.062,-3.903 63.672,-11.71c18.61,-7.806 34.292,-19.202 47.047,-34.188c12.756,-14.985 22.444,-33.317 29.066,-54.994c6.621,-21.676 9.932,-46.455 9.932,-74.335l20.074,5.915c-0,30.808 -3.834,52.32 -11.501,76.366c-7.667,24.047 -18.924,44.365 -33.77,60.953c-11.388,12.726 -24.725,23.113 -40.009,31.162c-4.641,2.444 -9.462,4.673 -14.462,6.686c-21.468,8.643 -46.072,12.964 -73.813,12.964Zm-13.8,102.878l-0,-296.924l19.655,-0l0,296.924l-19.655,0Zm178.154,0l-68.167,-135.916l17.146,-12.546l65.879,131.386l-14.858,17.076Zm-212.018,-102.878l-3.764,-18.819c-23.838,0 -45.062,-3.903 -63.672,-11.71c-18.61,-7.806 -34.292,-19.202 -47.047,-34.188c-12.756,-14.985 -22.444,-33.317 -29.066,-54.994c-6.621,-21.676 -9.932,-46.455 -9.932,-74.335l-20.074,3.943c0,30.808 3.834,54.292 11.501,78.338c7.667,24.047 18.924,44.365 33.77,60.953c14.846,16.589 33.003,29.205 54.471,37.848c21.468,8.643 46.072,12.964 73.813,12.964Zm13.8,102.878l0,-296.924l-19.655,-0l-0,296.924l19.655,0Zm-178.154,0l68.167,-135.916l-17.146,-12.546l-64.297,128.232l13.276,20.23Z" style="fill:#f4f4f4;fill-rule:nonzero;"/></g></g></svg>
